<svg width="267" height="86" viewBox="0 0 267 86" fill="none" xmlns="http://www.w3.org/2000/svg">
<path d="M100.808 41.672C100.808 41.256 100.952 40.904 101.24 40.616H104.792V27.896H100.904C99.7524 27.896 99.1764 27.432 99.1764 26.504C99.1764 26.088 99.3204 25.736 99.6084 25.448L125 25.4C125.544 25.4 125.96 25.544 126.248 25.832C126.568 26.088 126.728 26.424 126.728 26.84C126.728 27.256 126.584 27.608 126.296 27.896H109.112V40.568H119.72C120.264 40.568 120.68 40.712 120.968 41C121.288 41.256 121.448 41.592 121.448 42.008C121.448 42.424 121.304 42.776 121.016 43.064H109.112V53.192C109.112 57.32 108.68 60.344 107.816 62.264C106.952 64.184 105.368 65.144 103.064 65.144C101.848 65.144 100.904 64.632 100.232 63.608C99.5604 62.584 99.2244 61.128 99.2244 59.24C99.2244 55.688 101.08 52.136 104.792 48.584V43.064H102.536C101.384 43.064 100.808 42.6 100.808 41.672ZM103.016 63.272C103.688 63.272 104.136 62.6 104.36 61.256C104.616 59.944 104.76 57.384 104.792 53.576V50.792C102.456 53.64 101.288 56.424 101.288 59.144C101.288 61.896 101.864 63.272 103.016 63.272ZM136.721 47.624C137.297 47.624 137.585 48.472 137.585 50.168C137.585 52.632 136.913 54.744 135.569 56.504C134.225 58.264 132.513 59.144 130.433 59.144C127.841 59.144 125.905 58.376 124.625 56.84C123.345 55.304 122.705 53.128 122.705 50.312V32.264C122.705 28.136 123.137 25.112 124.001 23.192C124.865 21.272 126.385 20.312 128.561 20.312C131.729 20.312 133.313 22.456 133.313 26.744C133.313 29.976 132.673 32.568 131.393 34.52C130.145 36.472 128.705 37.928 127.073 38.888V51.752C127.073 53.576 127.425 54.952 128.129 55.88C128.833 56.808 129.793 57.272 131.009 57.272C132.225 57.272 133.361 56.536 134.417 55.064C135.473 53.592 136.001 51.208 136.001 47.912C136.065 47.72 136.305 47.624 136.721 47.624ZM131.249 26.792C131.249 23.72 130.481 22.184 128.945 22.184C128.561 22.184 128.257 22.312 128.033 22.568C127.841 22.824 127.665 23.464 127.505 24.488C127.217 26.056 127.073 30.184 127.073 36.872C129.857 34.856 131.249 31.496 131.249 26.792ZM145.712 37.304C148.56 37.304 150.88 38.248 152.672 40.136C154.464 42.024 155.36 44.6 155.36 47.864C155.36 51.096 154.512 53.784 152.816 55.928C151.152 58.072 148.912 59.144 146.096 59.144C143.28 59.144 140.928 58.184 139.04 56.264C137.184 54.312 136.256 51.624 136.256 48.2C136.256 44.744 137.12 42.072 138.848 40.184C140.608 38.264 142.896 37.304 145.712 37.304ZM145.76 39.176C144.896 39.176 144.144 39.4 143.504 39.848C142.896 40.264 142.592 40.872 142.592 41.672C142.592 43.72 143.392 45.688 144.992 47.576C146.592 49.432 148.496 50.664 150.704 51.272C150.768 50.056 150.8 49.016 150.8 48.152C150.8 44.824 150.448 42.504 149.744 41.192C149.04 39.848 147.712 39.176 145.76 39.176ZM140.816 48.152C140.816 51.416 141.216 53.752 142.016 55.16C142.848 56.568 144.192 57.272 146.048 57.272C147.328 57.272 148.304 56.952 148.976 56.312C149.68 55.64 150.16 54.568 150.416 53.096C148.336 52.648 146.416 51.704 144.656 50.264C142.928 48.824 141.664 47.224 140.864 45.464C140.832 46.008 140.816 46.904 140.816 48.152ZM171.568 40.232C171.568 39.272 171.84 38.552 172.384 38.072C172.928 37.56 173.584 37.304 174.352 37.304C175.12 37.304 175.728 37.528 176.176 37.976V51.752C176.176 53.576 176.464 54.952 177.04 55.88C177.616 56.808 178.4 57.272 179.392 57.272C180.384 57.272 181.344 56.696 182.272 55.544C183.36 54.168 183.904 51.624 183.904 47.912C183.936 47.72 184.176 47.624 184.624 47.624C185.2 47.624 185.488 48.472 185.488 50.168C185.488 52.888 184.896 55.064 183.712 56.696C182.56 58.328 180.928 59.144 178.816 59.144C175.456 59.144 173.248 57.624 172.192 54.584C170.944 57.624 168.656 59.144 165.328 59.144C163.344 59.144 161.744 58.552 160.528 57.368C159.312 56.152 158.704 54.424 158.704 52.184V40.232C158.704 39.272 158.944 38.552 159.424 38.072C159.904 37.56 160.512 37.304 161.248 37.304C161.984 37.304 162.576 37.528 163.024 37.976V51.752C163.024 55.56 163.984 57.464 165.904 57.464C167.344 57.464 168.64 56.6 169.792 54.872C170.976 53.144 171.568 50.712 171.568 47.576V40.232ZM188.337 50.84V58.472C188.017 58.92 187.457 59.144 186.657 59.144C185.857 59.144 185.217 58.904 184.737 58.424C184.257 57.912 184.017 57.176 184.017 56.216V37.976C184.337 37.528 184.897 37.304 185.697 37.304C186.497 37.304 187.137 37.56 187.617 38.072C188.097 38.552 188.337 39.272 188.337 40.232V43.88C189.937 39.912 192.145 37.928 194.961 37.928C196.977 37.928 198.449 38.472 199.377 39.56C200.305 40.616 200.769 41.88 200.769 43.352C200.769 44.152 200.529 44.792 200.049 45.272C199.569 45.752 199.105 45.992 198.657 45.992C197.825 45.992 197.281 45.8 197.025 45.416C197.217 44.936 197.313 44.248 197.313 43.352C197.313 42.456 197.009 41.64 196.401 40.904C195.793 40.168 195.057 39.8 194.193 39.8C192.689 39.8 191.329 41.176 190.113 43.928C188.929 46.648 188.337 48.952 188.337 50.84ZM202.961 32.6C202.417 32.056 202.145 31.384 202.145 30.584C202.145 29.784 202.417 29.112 202.961 28.568C203.505 27.992 204.177 27.704 204.977 27.704C205.777 27.704 206.449 27.992 206.993 28.568C207.569 29.112 207.857 29.784 207.857 30.584C207.857 31.384 207.569 32.056 206.993 32.6C206.449 33.144 205.777 33.416 204.977 33.416C204.177 33.416 203.505 33.144 202.961 32.6ZM202.769 40.232C202.769 39.272 203.009 38.552 203.489 38.072C203.969 37.56 204.577 37.304 205.313 37.304C206.049 37.304 206.641 37.528 207.089 37.976V51.752C207.089 53.576 207.441 54.952 208.145 55.88C208.849 56.808 209.809 57.272 211.025 57.272C212.241 57.272 213.377 56.536 214.433 55.064C215.489 53.592 216.017 51.208 216.017 47.912C216.081 47.72 216.321 47.624 216.737 47.624C217.313 47.624 217.601 48.472 217.601 50.168C217.601 52.632 216.929 54.744 215.585 56.504C214.241 58.264 212.529 59.144 210.449 59.144C207.857 59.144 205.921 58.376 204.641 56.84C203.393 55.304 202.769 53.128 202.769 50.312V40.232ZM225.005 49.352C223.725 48.904 222.445 48.44 221.165 47.96C219.917 47.448 218.861 46.728 217.997 45.8C217.133 44.872 216.701 43.688 216.701 42.248C216.701 40.776 217.373 39.592 218.717 38.696C220.061 37.768 222.013 37.304 224.573 37.304C227.165 37.304 229.181 37.752 230.621 38.648C232.093 39.544 232.829 40.584 232.829 41.768C232.829 42.344 232.605 42.808 232.157 43.16C231.741 43.512 231.325 43.688 230.909 43.688C230.109 43.688 229.581 43.496 229.325 43.112C229.517 42.888 229.613 42.456 229.613 41.816C229.613 41.144 229.117 40.536 228.125 39.992C227.133 39.448 226.029 39.176 224.813 39.176C223.597 39.176 222.589 39.4 221.789 39.848C220.989 40.296 220.589 40.984 220.589 41.912C220.589 42.808 221.037 43.592 221.933 44.264C222.861 44.936 223.965 45.496 225.245 45.944C226.557 46.392 227.853 46.872 229.133 47.384C230.445 47.896 231.549 48.632 232.445 49.592C233.373 50.52 233.837 51.672 233.837 53.048C233.837 55.096 232.941 56.632 231.149 57.656C229.389 58.648 227.053 59.144 224.141 59.144C221.261 59.144 218.909 58.312 217.085 56.648C215.293 54.952 214.397 52.856 214.397 50.36C214.397 49.464 214.573 48.76 214.925 48.248C215.277 47.736 215.677 47.48 216.125 47.48C216.957 47.48 217.437 47.624 217.565 47.912L217.661 48.056C217.469 48.536 217.373 49.128 217.373 49.832C217.373 51.976 217.997 53.752 219.245 55.16C220.493 56.568 222.221 57.272 224.429 57.272C227.821 57.272 229.533 56.072 229.565 53.672C229.565 51.848 228.045 50.408 225.005 49.352ZM262.672 47.624C263.248 47.624 263.536 48.472 263.536 50.168C263.536 52.632 262.896 54.744 261.616 56.504C260.368 58.264 258.736 59.144 256.72 59.144C254.704 59.144 253.024 58.44 251.68 57.032C250.368 55.592 249.712 53.752 249.712 51.512V44.696C249.712 40.888 248.752 38.984 246.832 38.984C245.136 38.984 243.744 39.848 242.656 41.576C241.568 43.304 241.024 46.2 241.024 50.264V58.472C240.704 58.92 240.144 59.144 239.344 59.144C238.544 59.144 237.904 58.904 237.424 58.424C236.944 57.912 236.704 57.176 236.704 56.216V32.168C236.704 28.008 237.104 25 237.904 23.144C238.704 21.256 240.24 20.312 242.512 20.312C243.728 20.312 244.672 20.824 245.344 21.848C246.016 22.872 246.352 24.328 246.352 26.216C246.352 29.64 244.576 33.128 241.024 36.68V40.904C242.368 38.504 244.496 37.304 247.408 37.304C249.488 37.304 251.136 37.96 252.352 39.272C253.6 40.584 254.224 42.472 254.224 44.936V51.752C254.224 53.576 254.512 54.952 255.088 55.88C255.664 56.808 256.512 57.272 257.632 57.272C258.752 57.272 259.744 56.52 260.608 55.016C261.504 53.48 261.952 51.112 261.952 47.912C261.984 47.72 262.224 47.624 262.672 47.624ZM241.024 34.376C243.2 31.56 244.288 28.824 244.288 26.168C244.288 23.512 243.712 22.184 242.56 22.184C241.92 22.184 241.504 22.92 241.312 24.392C241.12 25.864 241.024 29.192 241.024 34.376Z" fill="#2C7300"/>
<path d="M82.6763 52.7743C82.5843 53.1405 82.2748 53.6338 81.3878 54.1407C80.4943 54.6513 79.1714 55.076 77.438 55.3199C73.982 55.8063 69.307 55.5169 64.2746 54.2529C59.2422 52.989 54.9853 51.0351 52.1692 48.9735C50.7568 47.9394 49.7916 46.94 49.2454 46.0678C48.7032 45.2019 48.6635 44.621 48.7554 44.2547C48.8474 43.8885 49.1569 43.3952 50.0439 42.8883C50.9374 42.3777 52.2603 41.953 53.9938 41.7091C57.4498 41.2227 62.1248 41.5121 67.1571 42.7761C72.1895 44.04 76.4464 45.9939 79.2625 48.0556C80.675 49.0896 81.6402 50.089 82.1864 50.9612C82.7286 51.8271 82.7683 52.408 82.6763 52.7743Z" stroke="#2C7300" stroke-width="4"/>
<path d="M71.7052 14.1472C71.9944 14.4275 72.275 14.9671 72.271 16.018C72.267 17.0764 71.966 18.4689 71.2962 20.1294C69.9608 23.4404 67.3159 27.431 63.6269 31.238C59.9378 35.0449 56.0324 37.814 52.7651 39.2529C51.1264 39.9746 49.7441 40.3192 48.6863 40.3566C47.6361 40.3937 47.0879 40.1302 46.7987 39.8499C46.5095 39.5697 46.2289 39.03 46.2329 37.9792C46.237 36.9207 46.538 35.5283 47.2077 33.8677C48.5431 30.5568 51.188 26.5661 54.8771 22.7592C58.5661 18.9522 62.4715 16.1831 65.7389 14.7442C67.3775 14.0226 68.7598 13.6779 69.8176 13.6406C70.8678 13.6035 71.4161 13.867 71.7052 14.1472Z" stroke="#2C7300" stroke-width="4"/>
<path d="M32.6355 4.33441C33.0228 4.22408 33.6305 4.25091 34.5385 4.77981C35.4531 5.31256 36.5085 6.26944 37.6117 7.67974C39.8114 10.4917 41.9449 14.7776 43.3973 19.8759C44.8497 24.9741 45.2951 29.7409 44.9076 33.2899C44.7132 35.0699 44.3205 36.4393 43.824 37.3741C43.331 38.3021 42.8287 38.6452 42.4414 38.7555C42.0541 38.8658 41.4464 38.839 40.5384 38.3101C39.6238 37.7773 38.5684 36.8205 37.4652 35.4102C35.2655 32.5982 33.132 28.3123 31.6796 23.214C30.2272 18.1158 29.7818 13.349 30.1693 9.79995C30.3637 8.02 30.7564 6.65057 31.2529 5.71581C31.7459 4.78778 32.2482 4.44474 32.6355 4.33441Z" stroke="#2C7300" stroke-width="4"/>
<path d="M3.86804 32.9808C3.95434 32.6372 4.25684 32.1479 5.17614 31.6411C6.09894 31.1324 7.4668 30.7142 9.25831 30.4814C12.8286 30.0176 17.6586 30.344 22.8604 31.6505C28.0621 32.9569 32.4732 34.9515 35.4005 37.0473C36.8695 38.0989 37.8774 39.1139 38.4503 39.9982C39.021 40.8792 39.0564 41.4534 38.9701 41.797C38.8838 42.1406 38.5813 42.6299 37.662 43.1367C36.7392 43.6454 35.3714 44.0636 33.5799 44.2964C30.0096 44.7602 25.1795 44.4338 19.9778 43.1274C14.7761 41.8209 10.365 39.8263 7.43764 37.7305C5.96872 36.6789 4.9608 35.664 4.38788 34.7796C3.81714 33.8986 3.78174 33.3244 3.86804 32.9808Z" stroke="#2C7300" stroke-width="4"/>
<path d="M15.6737 71.8743C15.3845 71.594 15.1039 71.0544 15.1079 70.0035C15.112 68.9451 15.4129 67.5526 16.0827 65.8921C17.4181 62.5811 20.063 58.5905 23.752 54.7835C27.4411 50.9766 31.3465 48.2074 34.6138 46.7685C36.2525 46.0469 37.6348 45.7023 38.6926 45.6649C39.7428 45.6278 40.291 45.8913 40.5802 46.1716C40.8694 46.4518 41.15 46.9915 41.146 48.0423C41.1419 49.1008 40.841 50.4932 40.1712 52.1538C38.8358 55.4647 36.1909 59.4554 32.5018 63.2623C28.8128 67.0692 24.9074 69.8384 21.64 71.2773C20.0014 71.9989 18.6191 72.3436 17.5613 72.3809C16.5111 72.418 15.9629 72.1545 15.6737 71.8743Z" stroke="#2C7300" stroke-width="4"/>
<path d="M54.7395 81.6861C54.3522 81.7964 53.7445 81.7696 52.8365 81.2407C51.9219 80.708 50.8665 79.7511 49.7633 78.3408C47.5636 75.5288 45.4301 71.2429 43.9777 66.1446C42.5253 61.0464 42.0799 56.2796 42.4674 52.7306C42.6618 50.9506 43.0545 49.5812 43.551 48.6464C44.044 47.7184 44.5463 47.3754 44.9336 47.265C45.3209 47.1547 45.9286 47.1815 46.8366 47.7104C47.7512 48.2432 48.8066 49.2001 49.9098 50.6104C52.1095 53.4223 54.243 57.7082 55.6954 62.8065C57.1478 67.9047 57.5932 72.6715 57.2057 76.2206C57.0113 78.0005 56.6186 79.3699 56.1221 80.3047C55.6291 81.2327 55.1268 81.5758 54.7395 81.6861Z" stroke="#2C7300" stroke-width="4"/>
<circle cx="44.3049" cy="43.7648" r="4.87179" transform="rotate(14.0987 44.3049 43.7648)" fill="#2C7300"/>
</svg>
